# xmcd
#
# Track frame offsets: 
#        150
#        15135
#        32572
#        45914
#        57813
#        69292
#        84230
#        100392
#        112831
#        125290
#        139722
#        154087
#        168854
#        183699
#        199352
#
# Disc length: 2849 seconds
#
# Revision: 3
# Processed by: cddbd v1.5.2PL0 Copyright (c) Steve Scherf et al.
# Submitted via: ExactAudioCopyFreeDBPlugin 1.0
#
DISCID=b10b1f0f
DTITLE=Brenda and the Tabulations - Right on the Tip of My Tongue
DYEAR=2000
DGENRE=Soul
TTITLE0=Right on the Tip of My Tongue
TTITLE1=Don't Make Me Over
TTITLE2=The Touch of You
TTITLE3=Lies Lies Lies
TTITLE4=California Soul
TTITLE5=Oh Lord, What Are You Doing to Me
TTITLE6=A Child No One Wanted
TTITLE7=Scuse Uz Y'All
TTITLE8=You've Changed
TTITLE9=Someday We'll Be Together
TTITLE10=And My Heart Sang (Tra La La)
TTITLE11=Always and Forever
TTITLE12=Sha Na Na - He Loves Me
TTITLE13=A Part of You
TTITLE14=Where There's a Will
EXTD=YEAR: 2000 ID3G: 14
EXTT0=
EXTT1=
EXTT2=
EXTT3=
EXTT4=
EXTT5=
EXTT6=
EXTT7=
EXTT8=
EXTT9=
EXTT10=
EXTT11=
EXTT12=
EXTT13=
EXTT14=
PLAYORDER=
